solid ascii
  facet normal 0.000000e+000 0.000000e+000 1.000000e+000
    outer loop
      vertex   -6.500000e+001 1.500000e+001 1.000000e+001
      vertex   -2.500000e+001 1.500000e+001 1.000000e+001
      vertex   -6.500000e+001 5.500000e+001 1.000000e+001
    endloop
  endfacet
  facet normal -0.000000e+000 0.000000e+000 7.071068e-001
    outer loop
      vertex   -6.500000e+001 5.500000e+001 1.000000e+001
      vertex   -2.500000e+001 1.500000e+001 1.000000e+001
      vertex   -2.500000e+001 5.500000e+001 1.000000e+001
    endloop
  endfacet
  facet normal 0.000000e+000 0.000000e+000 1.000000e+000
    outer loop
      vertex   -6.500000e+001 5.500000e+001 1.000000e+001
      vertex   -2.500000e+001 5.500000e+001 1.000000e+001
      vertex   -6.500000e+001 9.500000e+001 1.000000e+001
    endloop
  endfacet
  facet normal -0.000000e+000 0.000000e+000 7.071068e-001
    outer loop
      vertex   -6.500000e+001 9.500000e+001 1.000000e+001
      vertex   -2.500000e+001 5.500000e+001 1.000000e+001
      vertex   -2.500000e+001 9.500000e+001 1.000000e+001
    endloop
  endfacet
  facet normal 0.000000e+000 0.000000e+000 -1.000000e+000
    outer loop
      vertex   -6.500000e+001 9.500000e+001 0.000000e+000
      vertex   -2.500000e+001 9.500000e+001 0.000000e+000
      vertex   -6.500000e+001 5.500000e+001 0.000000e+000
    endloop
  endfacet
  facet normal 0.000000e+000 0.000000e+000 -7.071068e-001
    outer loop
      vertex   -6.500000e+001 5.500000e+001 0.000000e+000
      vertex   -2.500000e+001 9.500000e+001 0.000000e+000
      vertex   -2.500000e+001 5.500000e+001 0.000000e+000
    endloop
  endfacet
  facet normal 0.000000e+000 0.000000e+000 -1.000000e+000
    outer loop
      vertex   -6.500000e+001 5.500000e+001 0.000000e+000
      vertex   -2.500000e+001 5.500000e+001 0.000000e+000
      vertex   -6.500000e+001 1.500000e+001 0.000000e+000
    endloop
  endfacet
  facet normal 0.000000e+000 0.000000e+000 -7.071068e-001
    outer loop
      vertex   -6.500000e+001 1.500000e+001 0.000000e+000
      vertex   -2.500000e+001 5.500000e+001 0.000000e+000
      vertex   -2.500000e+001 1.500000e+001 0.000000e+000
    endloop
  endfacet
  facet normal 0.000000e+000 -1.000000e+000 0.000000e+000
    outer loop
      vertex   -6.500000e+001 1.500000e+001 1.000000e+001
      vertex   -6.500000e+001 1.500000e+001 0.000000e+000
      vertex   -2.500000e+001 1.500000e+001 1.000000e+001
    endloop
  endfacet
  facet normal 0.000000e+000 -9.701425e-001 -0.000000e+000
    outer loop
      vertex   -2.500000e+001 1.500000e+001 1.000000e+001
      vertex   -6.500000e+001 1.500000e+001 0.000000e+000
      vertex   -2.500000e+001 1.500000e+001 0.000000e+000
    endloop
  endfacet
  facet normal -1.000000e+000 -0.000000e+000 -0.000000e+000
    outer loop
      vertex   -6.500000e+001 9.500000e+001 1.000000e+001
      vertex   -6.500000e+001 9.500000e+001 0.000000e+000
      vertex   -6.500000e+001 5.500000e+001 1.000000e+001
    endloop
  endfacet
  facet normal -9.701425e-001 0.000000e+000 0.000000e+000
    outer loop
      vertex   -6.500000e+001 5.500000e+001 1.000000e+001
      vertex   -6.500000e+001 9.500000e+001 0.000000e+000
      vertex   -6.500000e+001 5.500000e+001 0.000000e+000
    endloop
  endfacet
  facet normal -1.000000e+000 -0.000000e+000 -0.000000e+000
    outer loop
      vertex   -6.500000e+001 5.500000e+001 1.000000e+001
      vertex   -6.500000e+001 5.500000e+001 0.000000e+000
      vertex   -6.500000e+001 1.500000e+001 1.000000e+001
    endloop
  endfacet
  facet normal -9.701425e-001 0.000000e+000 0.000000e+000
    outer loop
      vertex   -6.500000e+001 1.500000e+001 1.000000e+001
      vertex   -6.500000e+001 5.500000e+001 0.000000e+000
      vertex   -6.500000e+001 1.500000e+001 0.000000e+000
    endloop
  endfacet
  facet normal 0.000000e+000 1.000000e+000 0.000000e+000
    outer loop
      vertex   -2.500000e+001 9.500000e+001 1.000000e+001
      vertex   -2.500000e+001 9.500000e+001 0.000000e+000
      vertex   -6.500000e+001 9.500000e+001 1.000000e+001
    endloop
  endfacet
  facet normal 0.000000e+000 9.701425e-001 0.000000e+000
    outer loop
      vertex   -6.500000e+001 9.500000e+001 1.000000e+001
      vertex   -2.500000e+001 9.500000e+001 0.000000e+000
      vertex   -6.500000e+001 9.500000e+001 0.000000e+000
    endloop
  endfacet
  facet normal 1.000000e+000 -0.000000e+000 0.000000e+000
    outer loop
      vertex   -2.500000e+001 1.500000e+001 1.000000e+001
      vertex   -2.500000e+001 1.500000e+001 0.000000e+000
      vertex   -2.500000e+001 5.500000e+001 1.000000e+001
    endloop
  endfacet
  facet normal 9.701425e-001 0.000000e+000 0.000000e+000
    outer loop
      vertex   -2.500000e+001 5.500000e+001 1.000000e+001
      vertex   -2.500000e+001 1.500000e+001 0.000000e+000
      vertex   -2.500000e+001 5.500000e+001 0.000000e+000
    endloop
  endfacet
  facet normal 1.000000e+000 -0.000000e+000 0.000000e+000
    outer loop
      vertex   -2.500000e+001 5.500000e+001 1.000000e+001
      vertex   -2.500000e+001 5.500000e+001 0.000000e+000
      vertex   -2.500000e+001 9.500000e+001 1.000000e+001
    endloop
  endfacet
  facet normal 9.701425e-001 0.000000e+000 0.000000e+000
    outer loop
      vertex   -2.500000e+001 9.500000e+001 1.000000e+001
      vertex   -2.500000e+001 5.500000e+001 0.000000e+000
      vertex   -2.500000e+001 9.500000e+001 0.000000e+000
    endloop
  endfacet
endsolid
solid ascii
  facet normal 0.000000e+000 0.000000e+000 1.000000e+000
    outer loop
      vertex   -3.766214e+001 2.000000e+001 4.000000e+001
      vertex   -4.766214e+001 2.000000e+001 4.000000e+001
      vertex   -3.766214e+001 1.000000e+001 4.000000e+001
    endloop
  endfacet
  facet normal 0.000000e+000 0.000000e+000 7.071068e-001
    outer loop
      vertex   -3.766214e+001 1.000000e+001 4.000000e+001
      vertex   -4.766214e+001 2.000000e+001 4.000000e+001
      vertex   -4.766214e+001 1.000000e+001 4.000000e+001
    endloop
  endfacet
  facet normal 0.000000e+000 0.000000e+000 -1.000000e+000
    outer loop
      vertex   -3.766214e+001 1.000000e+001 1.000000e+001
      vertex   -4.766214e+001 1.000000e+001 1.000000e+001
      vertex   -3.766214e+001 2.000000e+001 1.000000e+001
    endloop
  endfacet
  facet normal -0.000000e+000 0.000000e+000 -7.071068e-001
    outer loop
      vertex   -3.766214e+001 2.000000e+001 1.000000e+001
      vertex   -4.766214e+001 1.000000e+001 1.000000e+001
      vertex   -4.766214e+001 2.000000e+001 1.000000e+001
    endloop
  endfacet
  facet normal 0.000000e+000 -1.000000e+000 0.000000e+000
    outer loop
      vertex   -4.766214e+001 1.000000e+001 4.000000e+001
      vertex   -4.766214e+001 1.000000e+001 1.000000e+001
      vertex   -3.766214e+001 1.000000e+001 4.000000e+001
    endloop
  endfacet
  facet normal 0.000000e+000 -3.162278e-001 -0.000000e+000
    outer loop
      vertex   -3.766214e+001 1.000000e+001 4.000000e+001
      vertex   -4.766214e+001 1.000000e+001 1.000000e+001
      vertex   -3.766214e+001 1.000000e+001 1.000000e+001
    endloop
  endfacet
  facet normal -1.000000e+000 -0.000000e+000 -0.000000e+000
    outer loop
      vertex   -4.766214e+001 2.000000e+001 4.000000e+001
      vertex   -4.766214e+001 2.000000e+001 1.000000e+001
      vertex   -4.766214e+001 1.000000e+001 4.000000e+001
    endloop
  endfacet
  facet normal -3.162278e-001 0.000000e+000 0.000000e+000
    outer loop
      vertex   -4.766214e+001 1.000000e+001 4.000000e+001
      vertex   -4.766214e+001 2.000000e+001 1.000000e+001
      vertex   -4.766214e+001 1.000000e+001 1.000000e+001
    endloop
  endfacet
  facet normal 0.000000e+000 1.000000e+000 0.000000e+000
    outer loop
      vertex   -3.766214e+001 2.000000e+001 4.000000e+001
      vertex   -3.766214e+001 2.000000e+001 1.000000e+001
      vertex   -4.766214e+001 2.000000e+001 4.000000e+001
    endloop
  endfacet
  facet normal 0.000000e+000 3.162278e-001 0.000000e+000
    outer loop
      vertex   -4.766214e+001 2.000000e+001 4.000000e+001
      vertex   -3.766214e+001 2.000000e+001 1.000000e+001
      vertex   -4.766214e+001 2.000000e+001 1.000000e+001
    endloop
  endfacet
  facet normal 1.000000e+000 -0.000000e+000 0.000000e+000
    outer loop
      vertex   -3.766214e+001 1.000000e+001 4.000000e+001
      vertex   -3.766214e+001 1.000000e+001 1.000000e+001
      vertex   -3.766214e+001 2.000000e+001 4.000000e+001
    endloop
  endfacet
  facet normal 3.162278e-001 0.000000e+000 0.000000e+000
    outer loop
      vertex   -3.766214e+001 2.000000e+001 4.000000e+001
      vertex   -3.766214e+001 1.000000e+001 1.000000e+001
      vertex   -3.766214e+001 2.000000e+001 1.000000e+001
    endloop
  endfacet
endsolid
solid ascii
  facet normal -0.000000e+000 -1.000000e+000 -0.000000e+000
    outer loop
      vertex   -3.266214e+001 -1.000000e+001 5.000000e+001
      vertex   -5.266214e+001 -1.000000e+001 5.000000e+001
      vertex   -3.266214e+001 -1.000000e+001 3.000000e+001
    endloop
  endfacet
  facet normal 0.000000e+000 -7.071068e-001 0.000000e+000
    outer loop
      vertex   -3.266214e+001 -1.000000e+001 3.000000e+001
      vertex   -5.266214e+001 -1.000000e+001 5.000000e+001
      vertex   -5.266214e+001 -1.000000e+001 3.000000e+001
    endloop
  endfacet
  facet normal 0.000000e+000 1.000000e+000 -0.000000e+000
    outer loop
      vertex   -3.266214e+001 1.000000e+001 3.000000e+001
      vertex   -5.266214e+001 1.000000e+001 3.000000e+001
      vertex   -3.266214e+001 1.000000e+001 5.000000e+001
    endloop
  endfacet
  facet normal 0.000000e+000 7.071068e-001 0.000000e+000
    outer loop
      vertex   -3.266214e+001 1.000000e+001 5.000000e+001
      vertex   -5.266214e+001 1.000000e+001 3.000000e+001
      vertex   -5.266214e+001 1.000000e+001 5.000000e+001
    endloop
  endfacet
  facet normal 0.000000e+000 0.000000e+000 -1.000000e+000
    outer loop
      vertex   -5.266214e+001 -1.000000e+001 3.000000e+001
      vertex   -5.266214e+001 1.000000e+001 3.000000e+001
      vertex   -3.266214e+001 -1.000000e+001 3.000000e+001
    endloop
  endfacet
  facet normal 0.000000e+000 0.000000e+000 -7.071068e-001
    outer loop
      vertex   -3.266214e+001 -1.000000e+001 3.000000e+001
      vertex   -5.266214e+001 1.000000e+001 3.000000e+001
      vertex   -3.266214e+001 1.000000e+001 3.000000e+001
    endloop
  endfacet
  facet normal -1.000000e+000 0.000000e+000 0.000000e+000
    outer loop
      vertex   -5.266214e+001 -1.000000e+001 5.000000e+001
      vertex   -5.266214e+001 1.000000e+001 5.000000e+001
      vertex   -5.266214e+001 -1.000000e+001 3.000000e+001
    endloop
  endfacet
  facet normal -7.071068e-001 0.000000e+000 0.000000e+000
    outer loop
      vertex   -5.266214e+001 -1.000000e+001 3.000000e+001
      vertex   -5.266214e+001 1.000000e+001 5.000000e+001
      vertex   -5.266214e+001 1.000000e+001 3.000000e+001
    endloop
  endfacet
  facet normal 0.000000e+000 -0.000000e+000 1.000000e+000
    outer loop
      vertex   -3.266214e+001 -1.000000e+001 5.000000e+001
      vertex   -3.266214e+001 1.000000e+001 5.000000e+001
      vertex   -5.266214e+001 -1.000000e+001 5.000000e+001
    endloop
  endfacet
  facet normal 0.000000e+000 0.000000e+000 7.071068e-001
    outer loop
      vertex   -5.266214e+001 -1.000000e+001 5.000000e+001
      vertex   -3.266214e+001 1.000000e+001 5.000000e+001
      vertex   -5.266214e+001 1.000000e+001 5.000000e+001
    endloop
  endfacet
  facet normal 1.000000e+000 0.000000e+000 0.000000e+000
    outer loop
      vertex   -3.266214e+001 -1.000000e+001 3.000000e+001
      vertex   -3.266214e+001 1.000000e+001 3.000000e+001
      vertex   -3.266214e+001 -1.000000e+001 5.000000e+001
    endloop
  endfacet
  facet normal 7.071068e-001 -0.000000e+000 0.000000e+000
    outer loop
      vertex   -3.266214e+001 -1.000000e+001 5.000000e+001
      vertex   -3.266214e+001 1.000000e+001 3.000000e+001
      vertex   -3.266214e+001 1.000000e+001 5.000000e+001
    endloop
  endfacet
endsolid
