solid ascii
  facet normal 9.510565e-001 0.000000e+000 -0.000000e+000
    outer loop
      vertex   -1.190983e+001 1.067557e+002 -1.309017e+001
      vertex   -1.190983e+001 1.140211e+002 9.270510e+000
      vertex   -1.190983e+001 8.324429e+001 -1.309017e+001
    endloop
  endfacet
  facet normal 9.510565e-001 0.000000e+000 -0.000000e+000
    outer loop
      vertex   -1.190983e+001 8.324429e+001 -1.309017e+001
      vertex   -1.190983e+001 1.140211e+002 9.270510e+000
      vertex   -1.190983e+001 7.597887e+001 9.270510e+000
    endloop
  endfacet
  facet normal 5.877852e-001 0.000000e+000 0.000000e+000
    outer loop
      vertex   -1.190983e+001 7.597887e+001 9.270510e+000
      vertex   -1.190983e+001 1.140211e+002 9.270510e+000
      vertex   -1.190983e+001 9.500000e+001 2.309017e+001
    endloop
  endfacet
  facet normal -9.510565e-001 0.000000e+000 0.000000e+000
    outer loop
      vertex   -2.190983e+001 1.067557e+002 -1.309017e+001
      vertex   -2.190983e+001 8.324429e+001 -1.309017e+001
      vertex   -2.190983e+001 1.140211e+002 9.270510e+000
    endloop
  endfacet
  facet normal -5.877852e-001 -0.000000e+000 0.000000e+000
    outer loop
      vertex   -2.190983e+001 1.140211e+002 9.270510e+000
      vertex   -2.190983e+001 8.324429e+001 -1.309017e+001
      vertex   -2.190983e+001 7.597887e+001 9.270510e+000
    endloop
  endfacet
  facet normal -5.877852e-001 0.000000e+000 0.000000e+000
    outer loop
      vertex   -2.190983e+001 1.140211e+002 9.270510e+000
      vertex   -2.190983e+001 7.597887e+001 9.270510e+000
      vertex   -2.190983e+001 9.500000e+001 2.309017e+001
    endloop
  endfacet
  facet normal -0.000000e+000 -9.510565e-001 -3.090171e-001
    outer loop
      vertex   -1.190983e+001 7.597887e+001 9.270510e+000
      vertex   -2.190983e+001 7.597887e+001 9.270510e+000
      vertex   -1.190983e+001 8.324429e+001 -1.309017e+001
    endloop
  endfacet
  facet normal -0.000000e+000 -8.751842e-001 -2.843646e-001
    outer loop
      vertex   -1.190983e+001 8.324429e+001 -1.309017e+001
      vertex   -2.190983e+001 7.597887e+001 9.270510e+000
      vertex   -2.190983e+001 8.324429e+001 -1.309017e+001
    endloop
  endfacet
  facet normal 0.000000e+000 -5.877852e-001 8.090171e-001
    outer loop
      vertex   -1.190983e+001 9.500000e+001 2.309017e+001
      vertex   -2.190983e+001 9.500000e+001 2.309017e+001
      vertex   -1.190983e+001 7.597887e+001 9.270510e+000
    endloop
  endfacet
  facet normal 0.000000e+000 -5.408935e-001 7.444762e-001
    outer loop
      vertex   -1.190983e+001 7.597887e+001 9.270510e+000
      vertex   -2.190983e+001 9.500000e+001 2.309017e+001
      vertex   -2.190983e+001 7.597887e+001 9.270510e+000
    endloop
  endfacet
  facet normal 0.000000e+000 5.877852e-001 8.090171e-001
    outer loop
      vertex   -1.190983e+001 1.140211e+002 9.270510e+000
      vertex   -2.190983e+001 1.140211e+002 9.270510e+000
      vertex   -1.190983e+001 9.500000e+001 2.309017e+001
    endloop
  endfacet
  facet normal 0.000000e+000 5.408935e-001 7.444762e-001
    outer loop
      vertex   -1.190983e+001 9.500000e+001 2.309017e+001
      vertex   -2.190983e+001 1.140211e+002 9.270510e+000
      vertex   -2.190983e+001 9.500000e+001 2.309017e+001
    endloop
  endfacet
  facet normal 0.000000e+000 9.510565e-001 -3.090171e-001
    outer loop
      vertex   -1.190983e+001 1.067557e+002 -1.309017e+001
      vertex   -2.190983e+001 1.067557e+002 -1.309017e+001
      vertex   -1.190983e+001 1.140211e+002 9.270510e+000
    endloop
  endfacet
  facet normal 0.000000e+000 8.751842e-001 -2.843646e-001
    outer loop
      vertex   -1.190983e+001 1.140211e+002 9.270510e+000
      vertex   -2.190983e+001 1.067557e+002 -1.309017e+001
      vertex   -2.190983e+001 1.140211e+002 9.270510e+000
    endloop
  endfacet
  facet normal 0.000000e+000 0.000000e+000 -1.000000e+000
    outer loop
      vertex   -1.190983e+001 8.324429e+001 -1.309017e+001
      vertex   -2.190983e+001 8.324429e+001 -1.309017e+001
      vertex   -1.190983e+001 1.067557e+002 -1.309017e+001
    endloop
  endfacet
  facet normal -0.000000e+000 0.000000e+000 -9.202231e-001
    outer loop
      vertex   -1.190983e+001 1.067557e+002 -1.309017e+001
      vertex   -2.190983e+001 8.324429e+001 -1.309017e+001
      vertex   -2.190983e+001 1.067557e+002 -1.309017e+001
    endloop
  endfacet
endsolid
solid ascii
  facet normal -1.000000e+000 0.000000e+000 -6.743496e-008
    outer loop
      vertex   -1.190983e+001 8.792893e+001 -3.980898e+000
      vertex   -1.190983e+001 8.792893e+001 1.016124e+001
      vertex   -1.190983e+001 1.020711e+002 -3.980898e+000
    endloop
  endfacet
  facet normal -7.071068e-001 6.617445e-024 -4.768372e-008
    outer loop
      vertex   -1.190983e+001 1.020711e+002 -3.980898e+000
      vertex   -1.190983e+001 8.792893e+001 1.016124e+001
      vertex   -1.190983e+001 1.020711e+002 1.016124e+001
    endloop
  endfacet
  facet normal 2.000000e-001 -5.656855e-001 0.000000e+000
    outer loop
      vertex   8.090170e+000 9.500000e+001 3.090170e+000
      vertex   -1.190983e+001 8.792893e+001 1.016124e+001
      vertex   -1.190983e+001 8.792893e+001 -3.980898e+000
    endloop
  endfacet
  facet normal 2.000000e-001 0.000000e+000 5.656855e-001
    outer loop
      vertex   8.090170e+000 9.500000e+001 3.090170e+000
      vertex   -1.190983e+001 1.020711e+002 1.016124e+001
      vertex   -1.190983e+001 8.792893e+001 1.016124e+001
    endloop
  endfacet
  facet normal 2.000000e-001 5.656855e-001 0.000000e+000
    outer loop
      vertex   8.090170e+000 9.500000e+001 3.090170e+000
      vertex   -1.190983e+001 1.020711e+002 -3.980898e+000
      vertex   -1.190983e+001 1.020711e+002 1.016124e+001
    endloop
  endfacet
  facet normal 2.000000e-001 0.000000e+000 -5.656855e-001
    outer loop
      vertex   8.090170e+000 9.500000e+001 3.090170e+000
      vertex   -1.190983e+001 8.792893e+001 -3.980898e+000
      vertex   -1.190983e+001 1.020711e+002 -3.980898e+000
    endloop
  endfacet
endsolid
