solid ascii
  facet normal 9.510565e-001 0.000000e+000 -0.000000e+000
    outer loop
      vertex   -6.690983e+001 3.675571e+001 -1.309017e+001
      vertex   -6.690983e+001 4.402113e+001 9.270510e+000
      vertex   -6.690983e+001 1.324430e+001 -1.309017e+001
    endloop
  endfacet
  facet normal 9.510565e-001 0.000000e+000 -0.000000e+000
    outer loop
      vertex   -6.690983e+001 1.324430e+001 -1.309017e+001
      vertex   -6.690983e+001 4.402113e+001 9.270510e+000
      vertex   -6.690983e+001 5.978869e+000 9.270510e+000
    endloop
  endfacet
  facet normal 5.877852e-001 0.000000e+000 0.000000e+000
    outer loop
      vertex   -6.690983e+001 5.978869e+000 9.270510e+000
      vertex   -6.690983e+001 4.402113e+001 9.270510e+000
      vertex   -6.690983e+001 2.500000e+001 2.309017e+001
    endloop
  endfacet
  facet normal -9.510565e-001 0.000000e+000 0.000000e+000
    outer loop
      vertex   -7.690983e+001 3.675571e+001 -1.309017e+001
      vertex   -7.690983e+001 1.324430e+001 -1.309017e+001
      vertex   -7.690983e+001 4.402113e+001 9.270510e+000
    endloop
  endfacet
  facet normal -5.877852e-001 -0.000000e+000 0.000000e+000
    outer loop
      vertex   -7.690983e+001 4.402113e+001 9.270510e+000
      vertex   -7.690983e+001 1.324430e+001 -1.309017e+001
      vertex   -7.690983e+001 5.978869e+000 9.270510e+000
    endloop
  endfacet
  facet normal -5.877852e-001 0.000000e+000 0.000000e+000
    outer loop
      vertex   -7.690983e+001 4.402113e+001 9.270510e+000
      vertex   -7.690983e+001 5.978869e+000 9.270510e+000
      vertex   -7.690983e+001 2.500000e+001 2.309017e+001
    endloop
  endfacet
  facet normal -0.000000e+000 -9.510565e-001 -3.090170e-001
    outer loop
      vertex   -6.690983e+001 5.978869e+000 9.270510e+000
      vertex   -7.690983e+001 5.978869e+000 9.270510e+000
      vertex   -6.690983e+001 1.324430e+001 -1.309017e+001
    endloop
  endfacet
  facet normal -0.000000e+000 -8.751842e-001 -2.843646e-001
    outer loop
      vertex   -6.690983e+001 1.324430e+001 -1.309017e+001
      vertex   -7.690983e+001 5.978869e+000 9.270510e+000
      vertex   -7.690983e+001 1.324430e+001 -1.309017e+001
    endloop
  endfacet
  facet normal 0.000000e+000 -5.877852e-001 8.090170e-001
    outer loop
      vertex   -6.690983e+001 2.500000e+001 2.309017e+001
      vertex   -7.690983e+001 2.500000e+001 2.309017e+001
      vertex   -6.690983e+001 5.978869e+000 9.270510e+000
    endloop
  endfacet
  facet normal 0.000000e+000 -5.408936e-001 7.444761e-001
    outer loop
      vertex   -6.690983e+001 5.978869e+000 9.270510e+000
      vertex   -7.690983e+001 2.500000e+001 2.309017e+001
      vertex   -7.690983e+001 5.978869e+000 9.270510e+000
    endloop
  endfacet
  facet normal 0.000000e+000 5.877852e-001 8.090170e-001
    outer loop
      vertex   -6.690983e+001 4.402113e+001 9.270510e+000
      vertex   -7.690983e+001 4.402113e+001 9.270510e+000
      vertex   -6.690983e+001 2.500000e+001 2.309017e+001
    endloop
  endfacet
  facet normal 0.000000e+000 5.408936e-001 7.444761e-001
    outer loop
      vertex   -6.690983e+001 2.500000e+001 2.309017e+001
      vertex   -7.690983e+001 4.402113e+001 9.270510e+000
      vertex   -7.690983e+001 2.500000e+001 2.309017e+001
    endloop
  endfacet
  facet normal 0.000000e+000 9.510565e-001 -3.090169e-001
    outer loop
      vertex   -6.690983e+001 3.675571e+001 -1.309017e+001
      vertex   -7.690983e+001 3.675571e+001 -1.309017e+001
      vertex   -6.690983e+001 4.402113e+001 9.270510e+000
    endloop
  endfacet
  facet normal 0.000000e+000 8.751842e-001 -2.843645e-001
    outer loop
      vertex   -6.690983e+001 4.402113e+001 9.270510e+000
      vertex   -7.690983e+001 3.675571e+001 -1.309017e+001
      vertex   -7.690983e+001 4.402113e+001 9.270510e+000
    endloop
  endfacet
  facet normal 0.000000e+000 0.000000e+000 -1.000000e+000
    outer loop
      vertex   -6.690983e+001 1.324430e+001 -1.309017e+001
      vertex   -7.690983e+001 1.324430e+001 -1.309017e+001
      vertex   -6.690983e+001 3.675571e+001 -1.309017e+001
    endloop
  endfacet
  facet normal -0.000000e+000 0.000000e+000 -9.202231e-001
    outer loop
      vertex   -6.690983e+001 3.675571e+001 -1.309017e+001
      vertex   -7.690983e+001 1.324430e+001 -1.309017e+001
      vertex   -7.690983e+001 3.675571e+001 -1.309017e+001
    endloop
  endfacet
endsolid
solid ascii
  facet normal 1.000000e+000 -0.000000e+000 0.000000e+000
    outer loop
      vertex   -7.690983e+001 1.792893e+001 1.016124e+001
      vertex   -7.690983e+001 1.792893e+001 -3.980898e+000
      vertex   -7.690983e+001 3.207107e+001 1.016124e+001
    endloop
  endfacet
  facet normal 7.071068e-001 0.000000e+000 0.000000e+000
    outer loop
      vertex   -7.690983e+001 3.207107e+001 1.016124e+001
      vertex   -7.690983e+001 1.792893e+001 -3.980898e+000
      vertex   -7.690983e+001 3.207107e+001 -3.980898e+000
    endloop
  endfacet
  facet normal -2.000000e-001 -5.656855e-001 0.000000e+000
    outer loop
      vertex   -9.690983e+001 2.500000e+001 3.090170e+000
      vertex   -7.690983e+001 1.792893e+001 -3.980898e+000
      vertex   -7.690983e+001 1.792893e+001 1.016124e+001
    endloop
  endfacet
  facet normal -2.000000e-001 0.000000e+000 -5.656855e-001
    outer loop
      vertex   -9.690983e+001 2.500000e+001 3.090170e+000
      vertex   -7.690983e+001 3.207107e+001 -3.980898e+000
      vertex   -7.690983e+001 1.792893e+001 -3.980898e+000
    endloop
  endfacet
  facet normal -2.000000e-001 5.656855e-001 0.000000e+000
    outer loop
      vertex   -9.690983e+001 2.500000e+001 3.090170e+000
      vertex   -7.690983e+001 3.207107e+001 1.016124e+001
      vertex   -7.690983e+001 3.207107e+001 -3.980898e+000
    endloop
  endfacet
  facet normal -2.000000e-001 0.000000e+000 5.656855e-001
    outer loop
      vertex   -9.690983e+001 2.500000e+001 3.090170e+000
      vertex   -7.690983e+001 1.792893e+001 1.016124e+001
      vertex   -7.690983e+001 3.207107e+001 1.016124e+001
    endloop
  endfacet
endsolid
